<?xml version="1.0" encoding="utf-8"?>
<!-- Generator: Adobe Illustrator 26.5.0, SVG Export Plug-In . SVG Version: 6.00 Build 0)  -->
<svg version="1.1" id="logo" xmlns="http://www.w3.org/2000/svg" xmlns:xlink="http://www.w3.org/1999/xlink" width="150" height="50" x="0px" y="0px"
	 viewBox="0 0 1207.1 768" style="enable-background:new 0 0 1207.1 768;" xml:space="preserve">
<path d="M993.7,289.6c-7.8,0.5-15.6,1.2-23.5,1.4c-6.1,0.2-12.2,0.3-18.2-0.2c-20.8-1.5-41.3-4.2-61.7-8.4
	c-15.8-3.3-31.3-8.1-46.4-13.7c-12.7-4.7-25.4-9.6-38-14.7c-14.7-6-28.5-13.7-42.2-21.7c-27.5-16.1-55.8-30.6-84.4-44.5
	c-21.6-10.5-43.2-20.8-64.9-31.1c-13.3-6.3-26.6-12.5-39.9-18.9c-7.1-3.4-13.8-7.5-19.8-12.5c-4.2-3.5-8-7.4-11-12
	c-2-3.1-3.6-6.4-3.6-10.2c0-6.2,2.7-11.1,7.1-15.1c1.9-1.7,4-3.2,6.1-4.7c8.9-6.1,18.6-10.5,28.9-13.7c12.7-3.9,25.8-6.2,39-7.6
	c27.2-3,54.6-2.9,81.9-1.9c2.4,0.1,4.8,0.1,7.2,0.3c3.4,0.2,5.9-1.1,7.7-3.9c2.9-4.4,5.8-8.8,8.6-13.3c3.3-5.3,7.1-10.2,11.7-14.5
	c9.7-9,21.1-13.7,34.3-14c4-0.1,8,0.1,12,0.5c8.3,0.6,16.6,1.4,24.9,2.1c12.5,1,24.8,3.2,37,5.6c20.1,4,40.1,8.1,60.2,12.3
	c22.5,4.7,44.1,12,65.2,20.9c10.6,4.5,21.1,9.2,31.6,13.9c6.8,3,11.3,8.2,13.6,15.2c1.5,4.7,1.3,9.4,0.3,14.2
	c-2.1,9.5-4.2,19-6.2,28.6c-0.2,0.8-0.2,1.6-0.3,2.4c-0.4,3.4,0.8,6,3.7,7.7c1.1,0.7,2.2,1.3,3.4,1.8c14.4,6.2,28,14.1,41.4,22.1
	c15.7,9.3,31.3,18.7,46.8,28.3c4.6,2.9,8.9,6.2,13.1,9.7c5.8,4.9,10.3,10.9,13.3,17.9c1.3,3.1,2,6.3,2,9.8c-0.1,10.5,0,10.5-5.1,20
	c-1.3,2.4-2.7,4.8-4.2,7c-2.2,3.3-4.9,6.4-8.2,8.6c-7.4,5-15.1,9.6-23.3,13.3c-5.3,2.4-10.8,4-16.5,4.9c-10.9,1.7-21.8,3.5-32.7,4.9
	c-7.6,1-15.3,1.3-22.9,1.7C1012.3,288.7,1003,289.1,993.7,289.6L993.7,289.6z M707,72.3c-2.8,1.3-4.8,2.1-6.5,3.1
	c-1.2,0.7-2.5,1.5-3.4,2.6c-5.8,6.8-9.1,15.5-3.7,25.7c0.6,1.1,1.3,2.2,2,3.3c4.7,7.5,11.8,12,19.8,15.3c2.2,0.9,4.5,1.8,6.7,2.7
	c12.2,5.1,24.4,10.4,36.7,15.4c22.1,8.9,44.2,17.7,66.3,26.5c12.6,5,25.5,9.4,38.5,13.1c13.7,3.9,27.3,7.9,41,11.6
	c5.7,1.6,11.2,3.8,17.2,4c2.6,0.1,4.6,1.6,5.4,4.2c1,3.2,2.1,6.4,2.7,9.7c1.5,8.4,0,16.5-3,24.4c-1.5,3.9-1,5.1,2.5,7
	c0.3,0.2,0.6,0.3,0.8,0.5c7.5,3.6,15,7.1,22.5,10.7c0.5,0.2,1.2,0.2,1.7,0.3c0.2-0.5,0.4-0.8,0.4-1.1c0.1-5.8-0.5-11.5-2.1-17
	c-2-6.9-4.8-13.6-7.5-20.2c-1.6-4-3.2-8-4.7-12.1c-0.4-1-0.5-2.1-0.8-3.5c1.9,0,3.4-0.1,5-0.1c9.1,0,18.2,0,27.3-0.1
	c8.8-0.1,17-2.6,24.9-6.3c3.1-1.5,5.7-3.6,7.5-6.5c1.3-2,2.6-4.1,3.5-6.3c3.6-8.6,5.8-17.6,7.9-26.6c0.7-2.9-0.5-5.3-1.8-7.7
	c-0.6-1-2-1-2.8-0.1c-1.4,1.6-2.3,3.4-2.8,5.5c-0.8,3.5-3,6-6.2,7.5c-1.7,0.8-3.5,1.6-5.3,2c-4.5,1-9.1,2.1-13.6,2.7
	c-13.6,2-27.1,1.2-40.5-2c-2.5-0.6-5-1.2-7.5-1.7c-10.3-2.1-20.7-4-31-6.5c-11.5-2.8-22.8-6.1-34.2-9.5
	c-15.3-4.6-30.6-9.3-45.8-14.2c-14.4-4.7-28.8-9.6-43.1-14.6c-20.7-7.2-41.2-14.7-61.9-22c-4.3-1.5-7.9-4-11.3-7.1
	c-2.4-2.2-3.2-4.7-2.3-7.8C706.3,75.8,706.6,74.5,707,72.3L707,72.3z M822.7,24.5c0.1-0.4,0.1-0.7,0.2-1.1c-0.7-0.3-1.3-0.7-2-0.8
	c-1.9-0.4-3.8-0.6-5.7-0.9c-4.6-0.6-9.2-1.6-13.8-1.7c-9.6-0.3-19.2-0.2-28.8-0.3c-2.3,0-4.4,0.7-6.3,1.9c-2.7,1.6-2.8,3.3-0.4,5.2
	c0.2,0.2,0.5,0.4,0.8,0.6c4.4,3,8.9,5.7,13.9,7.5c13.4,4.8,26.9,9.3,40.7,12.7c13.2,3.3,26.4,6.4,39.6,9.4
	c16.7,3.8,33.3,7.6,50,11.2c22.3,4.9,45,8,67.6,11.1c7,1,13.3-0.4,19.2-4.2c0.5-0.3,0.8-0.8,1.5-1.6c-13-5.8-25.7-11.4-38.3-16.9
	c-0.1-0.1-0.4,0.3-1,0.7c1.2,0.9,2.3,1.8,3.4,2.6c3.1,2.3,6.1,4.6,9.2,6.9c2.3,1.7,3.3,4.1,3.9,6.8c-2.6,1.8-5.2,2.3-8,1.9
	c-7.6-1.2-15.2-2.1-22.7-3.5c-12.7-2.2-25.5-4.5-38.2-7.1c-15-3.1-30-6.5-44.9-10c-23.1-5.6-45.9-12.5-68.8-19.2
	c-2.3-0.7-4.5-1.7-6.7-2.7c-0.7-0.3-1.2-0.9-2-1.6c0.9-0.7,1.4-1.4,2-1.6c1.8-0.7,3.6-1.4,5.4-2c8.2-2.4,16.6-3.2,25.1-3.1
	C819.5,24.5,821.1,24.5,822.7,24.5L822.7,24.5z"/>
<path d="M383.5,314.4c0.2-1.9,1.9-2.5,3.1-3.3c11.1-8.4,22.1-16.9,33.4-25c26.5-18.8,54.2-35.7,83.5-49.8
	c33-15.8,67.3-27.8,103-35.9c13.3-3,26.7-5,40.2-6.2c3.8-0.3,7.6-0.6,11.5-1c1.6-0.1,3.1,0.2,4.6,0.9c24.8,12.2,49.7,24.2,73.8,37.7
	c2.2,1.2,4.4,2.6,6.5,3.8c-0.5,1.4-1.6,1.2-2.4,1.4c-9.2,2.4-17.7,6.4-25.8,11.2c-10.6,6.4-20.3,13.9-29.7,21.9
	C669,284,653.8,298.8,639,314.1c-5.9,6.1-11.8,12.2-17.6,18.3c-0.8,0.9-1.5,1.9-2.4,3c1.8,1,3.5,0.7,5,0.8c7,0.3,14.1,0.6,21.1,0.9
	c13.3,0.5,26.5,0.9,39.8,1.3c14.9,0.5,29.7,1,44.6,1.4c5.9,0.2,11.8,0.2,17.8,0.4c41.7,1.1,83.5,1.4,125.2,1
	c14.9-0.2,29.7-0.8,44.6-1.2c1.9-0.1,3.8-0.4,5.7-0.4c2.7-0.1,5.4,0,8.1,0.3c-5.7,0.7-11.3,1.5-17,2.2c-10.3,1.2-20.6,2.4-31,3.5
	c-8,0.8-15.9,1.6-23.9,2.3c-10.2,0.9-20.4,1.8-30.6,2.6c-10.2,0.8-20.4,1.5-30.6,2.2c-15.6,1-31.3,1.8-46.9,2.7
	c-8.1,0.4-16.3,0.8-24.4,1c-16.3,0.5-32.6,0.9-48.9,1.3c-32.9,0.8-65.9,1.1-98.8,0.5c-29.4-0.5-58.8-1.5-88.2-2.1
	c-20.6-0.5-41.2-0.8-61.9-1.1c-45.4-0.5-90.8,0-136.2,0.9c-19.5,0.4-39,1.1-58.5,2c-13.7,0.6-27.5,1.6-41.1,2.7
	c-24.4,2-47.9,7.5-70.1,18.2c-13,6.3-25.1,14.1-35.9,23.7c-12.7,11.3-22.8,24.6-30.2,39.9c-0.7,1.4-1.4,2.8-2.1,4.2
	c-1.2-0.9-0.8-1.9-0.7-2.7c0.7-11.5,3.8-22.3,9.1-32.5c6.7-13,16.2-23.7,27.5-32.8c12.7-10.2,26.9-17.7,42-23.7
	c16.7-6.6,34-11.1,51.6-14.4c16.4-3,32.9-5,49.5-6c16.9-1,33.8-2,50.8-2.8c54.6-2.7,109.3-3.2,164-2.8c19.2,0.1,38.4,0.2,57.6,0.1
	c14.5-0.1,29.1-0.5,43.6-1c10.1-0.4,20.1-1.5,30-3.5c7.6-1.6,14.7-4.3,21.4-8.3c9.5-5.7,18.2-12.5,26.2-20.1
	c18.5-17.3,34.7-36.7,49.5-57.2c0.5-0.6,0.8-1.3,1.2-1.9c-0.4-1.2-1.3-1-2-1.1c-16-0.8-32-1-48-0.3c-12,0.5-24,1.2-35.9,2.4
	c-22.8,2.4-45.3,5.9-67.1,13.2c-7,2.3-13.8,5.1-20.4,8.3c-38.3,18.4-76.9,36.3-115.7,53.6c-1.6,0.7-3,1.9-4.9,1.6L383.5,314.4
	L383.5,314.4z"/>
<path d="M349.7,522.5c0.2-23.3,6.9-44.4,21.7-62.6c11.4-14.1,25.7-24,43.4-28.3c24.9-6,47.6-0.8,67.7,15
	c16.2,12.8,26.6,29.7,31.7,49.6c6.9,26.9,3.8,52.7-10,76.9c-8.1,14.2-19.1,25.7-33.7,33.2c-26.8,13.9-53.3,12.9-78.8-3.1
	c-18.5-11.6-30.3-28.6-37-49.2C351.3,543.8,349.7,533.3,349.7,522.5L349.7,522.5z"/>
<path d="M1130.6,318c0.4,0.4,0.5,0.5,0.6,0.6c6.6,11.2,12.5,22.7,17,34.8c0.8,2.1,1.1,4.3,1.3,6.5c0.9,8.6,1.6,17.2,2.5,25.8
	c1.4,13.5,3.3,27,6.2,40.3c1.8,8.1,1.2,15.9-0.8,23.7c-2.6,10.4-6.2,20.5-10.5,30.3c-3.1,7.2-6.5,14.3-9.7,21.4
	c-1,2.2-2.4,3.6-4.5,4.7c-13.3,6.9-26.6,13.9-40,20.8c-0.8,0.4-1.7,0.7-3,1.2c0.3-1.2,0.4-2,0.6-2.7c1-3.9,2.2-7.7,3-11.6
	c0.4-2,1.2-3.6,2.4-5.1c3.5-4.5,7.1-9.1,10.5-13.7c2.7-3.6,5.2-7.3,7.7-11c8.3-12.5,13.3-26.1,15-41c1.3-11.8,2.4-23.5,2-35.4
	c-0.4-9.8-1.2-19.5-3.8-28.9c-1-3.5-2.2-7-3.7-10.3c-1.2-2.6-2.9-4.9-4.6-7.2c-3-4.1-7.2-5.6-12.2-5.2c-5.6,0.5-11.2,1-16.7,2
	c-20,3.5-39.9,7.3-59.9,10.7c-18.3,3.2-36.5,6.2-54.9,9.1c-14.8,2.3-29.7,4.4-44.6,6.4c-12.4,1.6-24.8,3-37.2,4.2
	c-15.6,1.6-31.2,3.1-46.8,4.4c-12,1-23.9,1.5-35.9,2.3c-21.2,1.3-42.5,1.9-63.8,2.4c-22.4,0.5-44.8,0.5-67.2-0.3
	c-13.6-0.5-27.2-0.7-40.8-1.4c-17.4-0.9-34.8-2.2-52.2-3.4c-12.3-0.9-24.5-2-36.8-3.2c-12.6-1.3-25.1-2.8-37.6-4.3
	c-12.5-1.6-25-3.3-37.5-5.1c-8.2-1.2-16.4-2.6-24.6-4c-0.3,0-0.5-0.3-0.8-0.5c5.3,0,10.5-0.1,15.8,0c9.1,0.2,18.2,0.5,27.3,0.6
	c38.5,0.6,77.1,1.1,115.6,0.7c21.8-0.2,43.5-0.5,65.2-0.9c21.4-0.5,42.8-1.1,64.2-1.9c19.8-0.8,39.6-1.7,59.4-2.9
	c18-1.1,36-2.3,54.1-3.8c16.4-1.4,32.8-2.9,49.2-4.8c30-3.3,59.9-7.6,89.4-14.2c5.8-1.3,11.5-2.7,17.3-4.1c1.2-0.3,2.4-0.8,3.8-1.3
	c-5.1-13.3-12.6-24.9-21.8-35.3c0.5-1.2,1.4-0.9,2.1-0.9c5.9,0.3,11.8,0.8,17.7,1c18.7,0.6,37.4-0.8,55.9-3.9c3-0.5,5.6-0.2,8.4,0.8
	c10.5,3.8,21.2,7.2,32.2,9.5c6.9,1.4,13.8,2.4,20.8,3.6C1127.8,317.6,1129.4,317.9,1130.6,318L1130.6,318z"/>
<path d="M1011.7,395.5c-0.2,0.4-0.2,1-0.5,1.1c-0.8,0.4-1.8,0.7-2.7,1c-30.9,10.1-52.3,30.5-65.3,60.1
	c-6.5,14.8-10.3,30.2-11.8,46.3c-0.5,5.7-0.6,11.5-0.9,17.2c-0.1,1-0.1,1.9-0.2,3c-1.9,0.8-3.8,0.9-5.7,1.1
	c-18.5,1.6-37,3.2-55.4,4.8c-16.9,1.4-33.8,2.8-50.7,4.2c-18.8,1.6-37.6,3.2-56.4,4.8c-18.8,1.6-37.6,3.2-56.4,4.8
	c-18.8,1.6-37.6,3.2-56.4,4.8c-18.8,1.6-37.6,3.2-56.4,4.8c-18.6,1.6-37.3,3.2-55.9,4.8c-2.4,0.2-4.7,0.4-7,0.6
	c-1.2-1.9-0.7-3.7-0.7-5.4c0-17.1,0-34.2,0-51.3c-0.1-13.8-2.9-27-8.6-39.5c-9.7-21-24.8-36.6-46.2-45.9c-9.5-4.1-19.5-6.1-29.8-6.5
	c-18.4-0.7-35.9,3.3-52.8,10.1c-5.8,2.3-11.3,5.1-17.1,7.7c-0.7-0.7,0.2-1.1,0.5-1.3c16.5-14.3,34.8-25.4,56.1-31.2
	c43.3-11.7,84.2,8,106.2,38.9c0.8,1.2,1.7,2.4,2.3,3.6c6.7,12,12.6,24.4,16.8,37.6c2.4,7.7,3.7,15.5,3.7,23.6c0,8.8,0,17.6,0,26.4
	c0,1.6,0.1,3.1,0.2,4.9c1,0.1,1.8,0.3,2.6,0.2c13.6-0.8,27.1-1.6,40.7-2.5c17.2-1.1,34.5-2.3,51.7-3.4c12.3-0.8,24.6-1.5,36.9-2.3
	c12.5-0.8,24.9-1.7,37.3-2.5c5.9-0.4,11.8-0.8,17.7-1.1c19.5-1.2,38.9-2.5,58.4-3.7c12.5-0.8,24.9-1.5,37.3-2.3
	c12.3-0.8,24.6-1.6,36.9-2.4c5.7-0.4,11.5-0.7,17.2-1.1c1-0.1,1.9-0.2,3-0.3c0.8-1.6,1-3.3,1.3-5c2.6-14.5,6.8-28.6,13.4-41.9
	c17.1-34.5,44.9-55.3,82.1-64.3c4.8-1.2,9.7-2.1,14.7-2.2L1011.7,395.5L1011.7,395.5z"/>
<path d="M1086.6,494.3c-0.5,23-6.7,41.3-20.6,56.8c-9.1,10.1-20.2,17.2-33.5,20.3c-21.2,5-40.2,0.1-56.9-13.8
	c-12.4-10.4-20.3-23.7-24.4-39.3c-5.1-19.7-3.5-39,5-57.5c4.4-9.6,10.7-17.8,18.6-24.7c25.9-22.5,62.6-21.7,87.4,2
	c12,11.5,19.4,25.6,22.6,41.9C1085.9,485.6,1086.3,491.2,1086.6,494.3L1086.6,494.3z"/>
<path d="M349.8,725.1c-1.2-0.5-1.9-0.8-2.6-1.2c-2.9-1.6-3.6-3-3.1-6.3c0.2-1.4,0.7-2.8,1.3-4.1c2.1-4.2,4.8-8,9-10.3
	c1.7-1,2.5-2.3,3-4c2.3-7.2,4.4-14.4,6.9-21.5c2.1-6,4.5-12,6.9-17.9c1.1-2.8,2.8-5.4,4.8-7.7c5-6,15.6-6.1,21-1.8
	c3,2.4,4.2,5.6,3.7,9.3c-0.3,2-0.8,4.1-1.4,6.1c-3.1,9.9-6.2,19.8-9.4,29.7c-0.5,1.7-1,3.3-1.5,5c4.4,0.8,24.2,0.3,29.1-0.7
	c0.5-1.4,0.9-2.9,1.4-4.4c3.2-9.5,6.3-19.1,9.8-28.6c1.3-3.7,3.2-7.3,5.1-10.8c4.5-8.3,12.6-9.6,19.7-7.7c4.1,1.1,6.6,4,6.8,8.3
	c0.1,2.7-0.1,5.4-0.5,8.1c-1.3,7.4-3.9,14.5-6.5,21.5c-1.3,3.5-2.7,6.8-4,10.3c-0.4,1-0.7,2.1-1.1,3.3c1.3,0.2,2.4,0.2,3.5,0.5
	c1.4,0.4,2.8,0.8,4,1.5c2.4,1.4,3.3,3.7,2,6.1c-3.4,6.3-7.2,12.2-15,13.7c-0.5,0.1-0.9,0.3-1.7,0.7c-0.6,1.4-1.2,3-1.8,4.6
	c-2.2,5.7-4.4,11.3-6.5,17c-2,5.6-6,9.3-11.2,11.8c-3,1.4-6.1,2.7-9.5,3.1c-1,0.1-1.9,0.2-2.9,0.2c-5-0.3-7.6-3.2-7.2-8.2
	c0.2-2.5,0.7-5.1,1.4-7.5c1.5-5.4,3.2-10.7,4.8-16.1c0.5-1.5,0.9-3,1.5-4.8c-4.9-0.9-9.5-0.5-14-0.6c-4.6-0.2-9.2-0.4-13.7-0.2
	c-1.3,1.9-1.6,3.8-2.1,5.6c-1.6,5.2-3.1,10.4-4.7,15.6c-0.7,2.1-1.5,4.2-2.4,6.3c-2.5,6-7.2,9.2-13.6,9.8c-2.4,0.2-4.8,0-7.1-0.4
	c-1.4-0.2-2.8-0.9-4-1.6c-3.4-2-5-5-4.2-8.9c0.8-4.2,1.9-8.4,3-12.6C347.5,732.1,348.7,728.8,349.8,725.1L349.8,725.1z"/>
<path d="M526,722.1c-1.5-0.1-1.6,1.1-2,1.9c-2.7,4.2-5.2,8.4-8,12.5c-2.9,4.4-6.2,8.5-10,12.2c-3.1,3-6.5,5.6-10.5,7.5
	c-5.3,2.6-10.8,2.9-16.3,1.2c-5.3-1.7-9.1-5.2-11.2-10.4c-1.3-3.1-1.9-6.4-2-9.8c-0.2-6.8,0.8-13.4,2.2-20
	c4.1-19.8,9.9-39,17.9-57.5c0.8-1.9,1.7-3.8,2.7-5.6c1.2-2.4,3-4.1,5.6-5c5.5-1.9,11.2-2.6,17-2c4.3,0.5,6.5,3.3,6.1,7.6
	c-0.2,1.9-0.6,3.8-1.2,5.6c-0.8,2.6-1.9,5.1-2.9,7.6c-7,17-11.6,34.8-15.3,52.8c-0.3,1.4-0.3,2.9-0.3,4.3c0.1,1.8,1.6,2.4,3.1,1.2
	c1.1-0.9,2.2-1.9,3.1-3c2.3-2.8,4.7-5.7,6.8-8.6c8.5-11.8,16.4-24,23.4-36.8c1.7-3.1,3.5-6.1,5.3-9.1c3-4.8,7.6-6.6,13-6.9
	c1.1,0,2.2,0.2,3.3,0.5c2.6,0.7,4.1,2.4,4.3,5.1c0.1,2.2,0,4.5-0.3,6.7c-1.3,9.5-1.9,19.1-2.2,28.7c-0.4,12.8,0.8,25.5,3.8,38
	c0.6,2.3,1.1,4.7,1.4,7.1c0.5,3.3-0.4,5.3-3.5,6.6c-3.4,1.4-6.9,2.4-10.5,3.3c-4.2,1-7.9-0.3-11.2-3c-2.9-2.4-5-5.4-6.5-8.8
	c-2-4.2-3.1-8.7-3.7-13.3c-0.4-3.2-0.7-6.3-1-9.5C526.3,722.9,526.1,722.5,526,722.1L526,722.1z"/>
<path d="M956,727c0.9-0.2,1.9-0.3,2.5-0.8c1.4-1.2,2.8-2.6,4-4.1c3.2-4,6.3-8.1,9.2-12.3c7.5-10.8,14.5-21.8,20.8-33.4
	c1.5-2.7,3-5.3,4.6-7.8c3.1-4.7,7.7-6.6,13.1-6.6c5.2-0.1,7.6,2.5,7.4,7.8c-0.2,3.7-0.7,7.3-1.1,11c-1.6,14.3-2.3,28.7-0.6,43.1
	c0.7,6,2,12,3.1,17.9c0.4,2.2,0.9,4.4,1.3,6.6c0.5,2.5-0.4,4.5-2.6,5.7c-4.4,2.3-9.1,4-14.1,4.1c-3.3,0.1-6.2-1.3-8.7-3.5
	c-3.4-2.9-5.6-6.5-7.2-10.6c-2.1-5.4-3-11.1-3.5-16.8c-0.2-1.7-0.3-3.4-0.5-5c-1.4-0.2-1.6,0.7-2,1.3c-2.8,4.4-5.6,9-8.5,13.4
	c-2.8,4.3-6.1,8.3-9.8,11.8c-3.1,3-6.5,5.6-10.5,7.5c-5.3,2.6-10.8,2.9-16.3,1.1c-8.1-2.6-11.9-8.8-12.9-16.8
	c-0.6-4.8-0.3-9.6,0.4-14.3c1.8-12.5,5-24.8,8.6-36.8c3.3-10.9,7.3-21.5,11.7-31.9c2.5-5.9,6.4-8.9,12.5-9.7
	c3.2-0.4,6.4-0.6,9.6-0.8c0.9-0.1,1.9,0.1,2.9,0.3c3.4,0.7,5.3,2.7,5.4,6.3c0,2-0.3,4.2-0.9,6.1c-0.7,2.6-1.8,5.1-2.8,7.6
	c-7.1,17-11.6,34.8-15.5,52.8C955.2,722.3,954.8,724.5,956,727L956,727z"/>
<path d="M155.6,721.4c-1,1.6-1.8,2.8-2.5,4c-3.5,5.3-6.9,10.8-10.7,15.9c-2.7,3.6-5.9,6.7-9.1,9.8c-2.5,2.4-5.6,4.2-8.9,5.6
	c-5.3,2.3-10.6,2.3-15.9,0.4c-7.2-2.6-10.8-8.1-12-15.4c-1-5.6-0.5-11.2,0.4-16.7c3.8-23,10.5-45.1,19.8-66.5
	c0.6-1.3,1.3-2.6,1.8-3.9c1.4-3.2,3.9-5,7.1-6c4.6-1.3,9.4-1.8,14.2-1.7c0.9,0,1.9,0.2,2.8,0.4c2.7,0.7,4.5,2.6,4.6,5.4
	c0.1,1.9,0,3.9-0.5,5.7c-0.7,2.8-1.8,5.5-2.9,8.1c-7.1,16.8-11.6,34.5-15.5,52.3c-0.5,2.2-0.5,4.4-0.4,6.6c0,1.3,1.5,1.9,2.5,1.1
	c1.2-1,2.5-2,3.5-3.3c2.7-3.3,5.4-6.7,8-10.2c8.2-11.4,15.8-23.3,22.6-35.6c1.6-2.9,3.3-5.9,5.1-8.7c3-4.8,7.6-6.6,13-6.9
	c0.9,0,1.9,0.2,2.8,0.3c2.9,0.6,4.4,2.5,4.7,5.3c0.1,1.4,0,2.9-0.2,4.3c-1.1,10.8-2.2,21.6-2.4,32.5c-0.2,13,1.3,25.8,4.2,38.5
	c0.4,1.9,0.7,3.8,1,5.7c0.4,2.3-0.4,4.2-2.3,5.3c-4.7,2.6-9.6,4.3-15,4.2c-3.3-0.1-6.1-1.7-8.5-3.9c-3.4-3.1-5.6-7-7.1-11.3
	c-1.6-4.7-2.5-9.6-3-14.5C156.7,726.2,156.8,724,155.6,721.4L155.6,721.4z"/>
<path d="M877.9,730.5c-1.5,0.5-2.6,0.8-3.6,1.2c-5,1.9-10.1,2.6-15.5,2.3c-5.7-0.3-11.5-0.3-17.4-0.4c-0.7,1.3-1.4,2.6-2.1,3.8
	c-2,3.5-3.8,7-6,10.3c-4.1,6.3-10,9.7-17.6,10.1c-3,0.2-6.1,0.2-9.1-0.1c-3.5-0.4-4.6-2.7-3.2-5.8c0.7-1.6,1.6-3.1,2.6-4.6
	c2.2-3.3,4.6-6.5,6.9-9.8c0.9-1.3,1.7-2.6,2.8-4.2c-1.7-0.7-3.2-1.2-4.6-1.9c-3.4-1.7-4.3-4.1-2.4-7.5c2.3-4.1,5.4-7.5,9.2-10.3
	c1.8-1.3,4-1.9,6.3-2c1.8-0.1,3.5-0.2,5-0.3c0.3-0.2,0.5-0.3,0.6-0.3c0.1-0.1,0.3-0.2,0.3-0.3c0.3-0.4,0.6-0.8,0.8-1.2
	c9.1-16.3,18.2-32.7,27.5-49.3c-1.4-2.8-2.9-5.7-4.3-8.4c1-1.7,2.4-2.1,3.8-2.5c5.7-1.8,11.6-2.3,17.5-1.7c5.4,0.6,9.6,3.2,12.6,7.8
	c2.2,3.4,3.8,7,4.9,10.9c2.2,7.4,3.5,14.9,4.7,22.5c1.8,11.4,5,22.4,9.2,33.2c3.3,8.5,6.9,16.9,11.2,24.9c0.3,0.6,0.5,1.2,0.9,1.9
	c-0.7,0.6-1.2,1.4-2,1.9c-3.2,1.9-6.3,3.7-9.6,5.4c-2.4,1.3-5.1,1.8-7.9,1.8c-6,0.2-10.5-2.4-13.5-7.4c-1-1.6-1.8-3.4-2.6-5.1
	c-1.3-3.3-2.5-6.6-3.7-9.9C879.1,734,878.6,732.5,877.9,730.5L877.9,730.5z M865.6,682.4c-0.4,0.6-0.9,1-1.2,1.6
	c-4.1,8.6-8.2,17.3-12.2,26c-0.3,0.7-0.2,1.5-0.4,2.2c7.1,0.7,17,0.5,20-0.4C871.9,707.7,867.3,686.5,865.6,682.4L865.6,682.4z"/>
<path d="M594.1,667.4c-1.7,0.1-3.3,0.2-4.8,0.3c-1.4,0.1-2.9,0.3-4.3,0.2c-2.3-0.2-3.6-1.6-3.4-3.8c0.4-3.8,1.8-7.3,5.7-8.8
	c3.2-1.3,6.7-2.3,10.1-2.9c9-1.6,18.1-2,27.2-1.1c7.4,0.7,14.4,2.8,21,6.4c3.4,1.8,6.5,4.2,9.1,6.9c7.5,7.7,9.6,16.8,6.4,27
	c-3.2,10.1-10.2,16.8-19.7,21c-1.7,0.8-3.5,1.3-5.5,2.1c0.4,2,1.5,3.3,2.6,4.7c2.4,3.1,5.2,5.7,8.5,7.7c4,2.3,8.1,4.4,12.2,6.6
	c1.4,0.7,2.9,1.3,4.4,1.9c0,1.1,0.2,2,0,2.9c-1,4.9-2.7,9.5-5.8,13.6c-5.2,6.8-11.1,8.6-19,5.4c-6.1-2.4-11.2-6.1-15-11.6
	c-5.5-7.9-9.8-16.5-12.9-25.6c-0.2-0.4-0.2-0.9-0.4-1.4c-1.3-4.9-0.8-6.1,4-8c14.6-5.5,20.9-20.1,20.1-31.8
	c-0.5-7.4-4.3-12.2-11.5-14.1c-0.6-0.2-1.2-0.1-1.9-0.1c-1.2,1.8-1.4,3.7-1.9,5.5c-5.7,19.6-11.4,39.3-17.2,58.9
	c-1.3,4.4-3.1,8.7-4.9,13c-2,5-5.5,8.6-10.4,10.8c-2.5,1.2-5,2.2-7.5,3.2c-0.9,0.3-1.8,0.6-2.8,0.7c-5.2,0.7-8-1.7-8.1-6.8
	c0-1.9,0.2-3.8,0.6-5.7c2-10.4,5.2-20.5,8.6-30.4c4.8-13.9,9.9-27.7,14.9-41.5C593.3,670.7,594.2,669.3,594.1,667.4L594.1,667.4z"/>
<path d="M336.7,669.4c0,5-1,9.8-2.6,14.5c-4.4,12.6-12,22.9-22.5,31c-3,2.4-6.3,4.5-10,5.5c-1.5,0.4-3.1,0.7-4.7,0.7
	c-2.6,0-4.1-2.2-3.3-4.6c0.4-1.2,1-2.4,1.7-3.4c8.4-12.7,12-27.1,14.2-41.9c0.3-2.2,0.2-4.5,0.2-6.7c0-0.8-0.2-1.6-0.5-2.3
	c-0.4-0.8-1.1-1.3-2-0.9c-1,0.5-2.1,0.9-2.9,1.7c-1.9,1.7-3.8,3.5-5.4,5.4c-11.1,13.2-18.5,28.3-21.6,45.4
	c-1.1,6.1-1.7,12.4-0.6,18.6c0.1,0.8,0.2,1.6,0.4,2.3c0.9,2.9,2.8,4.7,5.9,4.8c2.2,0,4.5,0,6.6-0.6c3.5-1,7-2.3,10.3-3.8
	c7.9-3.5,15.4-7.8,22.6-12.5c2.3-1.5,4.6-2.9,7-4.2c1.5-0.8,3.3-1.9,4.9-0.7c1.9,1.4,1.1,3.6,0.5,5.3c-0.8,2.6-2,5-3.1,7.5
	c-2.7,6.3-7.2,10.8-13,14.2c-10.9,6.3-22.4,11-34.8,13.2c-24,4.3-44.8-15.9-41.2-40c0.8-5.6,2.5-10.9,4.6-16.1
	c9.6-22.6,25.4-39.3,47.9-49.4c5.4-2.4,11-4.5,17-4.6c3.2-0.1,6.4,0,9.5,0.7c9,2.1,14.1,8.5,14.6,17.8
	C336.7,667.5,336.7,668.4,336.7,669.4L336.7,669.4z"/>
<path d="M769.3,688.3c-0.1,16-3.5,29.4-10.9,41.8c-5.2,8.8-12,16.2-20.9,21.4c-16.2,9.6-32.8,9.9-49.4,1.3
	c-10.2-5.3-15.9-14-17.1-25.6c-0.6-6.1-0.1-12.2,1.6-18c5.9-20.2,17.4-36.6,34.4-48.9c10.2-7.3,21.8-11.3,34.3-12.3
	c2.4-0.2,4.8,0,7.2,0.2c0.9,0,1.9,0.3,2.8,0.6c1.3,0.5,1.9,1.9,1.2,3.1c-0.7,1.1-1.5,2.1-2.4,3c-2.3,2.2-5,4-8.1,5
	c-2.9,0.9-5.8,1.9-8.7,2.8c-5.2,1.5-9.6,4.4-13.5,8c-11.9,11.1-17.6,24.8-18,41c-0.1,5.9,0.4,11.8,1.8,17.6c0.8,3.1,1.9,6.1,3.8,8.7
	c4.4,6.2,11.5,7.9,18.2,4.5c1.7-0.9,3.4-1.9,4.8-3.2c10.4-9.7,15.8-21.5,14.5-36c-0.5-5.7-2.7-10.8-5.5-15.7c-1.1-2-2.2-3.9-3.3-5.9
	c-1.9-3.4-1.2-6.5,1.4-9.2c4.3-4.4,9.2-8,15-10.2c5.1-2,9.6-0.3,12.2,4.6c1,1.8,1.7,3.8,2.2,5.8C768.8,678.4,769.5,684,769.3,688.3
	L769.3,688.3z"/>
<path d="M1196.4,689.7c0,14.4-3.5,27.8-10.8,40.3c-5.2,8.8-12,16.2-20.8,21.5c-16.2,9.7-32.8,10-49.4,1.4
	c-10.4-5.4-16.1-14.2-17.2-26c-0.6-6,0-11.9,1.6-17.6c5.9-20.4,17.5-36.9,34.8-49.2c10.2-7.3,21.9-11.2,34.4-12.1
	c2.5-0.2,5.1,0.1,7.7,0.3c0.9,0.1,1.9,0.4,2.6,1c0.5,0.4,0.9,1.5,0.7,2c-0.5,1.2-1.2,2.3-2.1,3.2c-2.4,2.4-5.1,4.3-8.4,5.4
	c-2.9,1-5.8,1.9-8.7,2.8c-5.3,1.6-9.8,4.5-13.8,8.3c-11.8,11.2-17.4,25-17.7,41.1c-0.1,5.8,0.3,11.5,1.8,17.1c0.7,2.6,1.7,5.2,3,7.5
	c4.4,7.7,12.6,9.7,20.2,5.2c1.2-0.7,2.4-1.6,3.5-2.5c10.6-9.8,16-21.8,14.6-36.4c-0.6-5.7-2.8-10.8-5.6-15.7c-1.1-2-2.2-3.9-3.2-5.9
	c-1.7-3.1-1.1-5.9,1.1-8.4c4.4-4.8,9.6-8.5,15.7-10.8c4.7-1.8,9.1-0.2,11.5,4.2c1.1,1.9,1.8,4.1,2.5,6.2
	C1195.8,677.8,1196.4,683.4,1196.4,689.7L1196.4,689.7z"/>
<path d="M49.4,673.6c-4.6,0.4-8.2,0.8-11.8,1.1c-2.7,0.2-5.4,0.3-8.1,0.3c-1.4,0-2.9-0.2-4.3-0.5c-4.9-1.2-6.8-4.7-5.1-9.4
	c0.4-1.2,1.1-2.3,1.8-3.4c1.3-1.8,2.7-3.5,4.2-5.2c4.9-5.4,10.9-8,18.3-7.7c12.5,0.4,24.9,1.1,37.3,2.4c1.6,0.2,3.2,0.5,4.6,1.1
	c3.3,1.3,4.6,3.7,4.3,7.2c-0.5,5.5-3,8.7-8.4,10.3c-2.7,0.8-5.6,1.3-8.4,1.9c0.2,1.8,0.7,3.5,0.6,5.1c-0.1,1.7-0.5,3.5-1,5.2
	c-4.6,14.6-7.6,29.7-11.4,44.5c-1.4,5.2-3.1,10.4-4.6,15.6c-1.5,5.4-4.9,9.2-9.8,11.8c-3.2,1.8-6.4,3.5-10.1,4.4
	c-3.8,0.9-7.3,0.3-10-2.8c-2.2-2.4-2.9-5.3-2.5-8.5c0.5-3.8,1.1-7.6,2.1-11.3c4.9-18.7,11.2-37,19.1-54.6
	C47.2,678.8,48.2,676.5,49.4,673.6L49.4,673.6z"/>
<path d="M1056.4,673.5c-2.7,0.3-4.6,0.5-6.5,0.7c-1.8,0.2-3.5,0.3-5.2,0.4c-2.9,0.2-5.7,0.3-8.6,0.3c-1.6,0-3.2-0.3-4.7-0.7
	c-3.9-1.1-5.7-4.3-4.6-8.1c0.4-1.5,1.1-3,2-4.3c1.5-2.1,3.1-4,4.9-5.9c4.6-5,10.3-7.3,17.1-7.1c12.8,0.3,25.5,1.2,38.2,2.4
	c0.2,0,0.3,0,0.5,0c4.8,0.7,7.6,2.8,8,6.2c0.6,4.8-1.9,10-6,11.5c-2.7,1-5.5,1.5-8.3,2.2c-0.8,0.2-1.5,0.3-2.6,0.4
	c0.3,1.6,0.7,3.1,0.7,4.6c0,1.6-0.4,3.2-0.8,4.7c-0.3,1.5-0.9,3.1-1.3,4.6c-2.9,11.4-5.8,22.9-8.8,34.3c-1.8,6.8-3.7,13.6-5.6,20.3
	c-0.5,1.8-1.2,3.7-2.1,5.3c-1,1.8-2.1,3.7-3.6,5c-4.3,3.7-9.2,6.3-14.7,7.8c-2,0.6-4.1,0.7-6.1-0.1c-3.8-1.4-6.1-4.2-6.3-8.2
	c-0.2-2.8,0.1-5.8,0.6-8.6c1.7-9.3,4.8-18.2,7.7-27.2c3.8-11.9,8.4-23.4,13.5-34.8C1054.7,677.7,1055.4,676,1056.4,673.5
	L1056.4,673.5z"/>
<path d="M1011.8,395.6c0.3-0.1,0.6-0.2,0.9-0.2c0.2,0,0.3,0,0.5,0c-0.2,0.2-0.4,0.4-0.6,0.4C1012.3,395.8,1012,395.6,1011.8,395.6
	C1011.7,395.5,1011.8,395.6,1011.8,395.6L1011.8,395.6z"/>
<path d="M383.4,314.3c-0.2,0.2-0.5,0.5-0.7,0.7c-0.1-0.1-0.1-0.2-0.2-0.3c0.3-0.1,0.7-0.2,1-0.2L383.4,314.3z"/>
</svg>
